<svg xmlns="http://www.w3.org/2000/svg" width="480" height="470" viewBox="0 0 480 470" role="img"><title>Cortex — illustrated project overview</title><rect x="1" y="1" width="478" height="468" rx="12" fill="#0D1117" stroke="#234650"/><path d="M426 1H468Q479 1 479 13V40Z" fill="#00DDEB"/><text x="22" y="32" fill="#00DDEB" font-family="Consolas, Menlo, monospace" font-size="11" font-weight="600">01 / TERMINAL WORKSPACE</text><text x="20" y="76" fill="#F0F6FC" font-family="Arial, Helvetica, sans-serif" font-size="36" font-weight="700">Cortex</text><rect x="20" y="98" width="440" height="250" rx="6" fill="#091219" stroke="#234650"/><rect x="20" y="98" width="440" height="34" rx="6" fill="#122C34" stroke="#234650"/><circle cx="34" cy="115" r="3" fill="#00DDEB"/><circle cx="48" cy="115" r="3" fill="#56838D"/><circle cx="62" cy="115" r="3" fill="#35525D"/><text x="82" y="119" fill="#9DADB8" font-family="Consolas, Menlo, monospace" font-size="11" font-weight="400">A workspace for focused work</text><rect x="32" y="144" width="104" height="190" rx="6" fill="#0D1C25" stroke="#234650"/><text x="44" y="166" fill="#9DADB8" font-family="Consolas, Menlo, monospace" font-size="9" font-weight="600">WORKSPACES</text><rect x="39" y="179" width="90" height="26" rx="6" fill="#0B3D45" stroke="#12616B"/><text x="48" y="196" fill="#00DDEB" font-family="Arial, Helvetica, sans-serif" font-size="10" font-weight="600">Development</text><text x="48" y="223" fill="#9DADB8" font-family="Arial, Helvetica, sans-serif" font-size="10" font-weight="400">Automation</text><text x="48" y="246" fill="#9DADB8" font-family="Arial, Helvetica, sans-serif" font-size="10" font-weight="400">Infrastructure</text><rect x="148" y="144" width="298" height="88" rx="6" fill="#0B1820" stroke="#234650"/><text x="160" y="164" fill="#00DDEB" font-family="Consolas, Menlo, monospace" font-size="10" font-weight="600">POWERSHELL / CMD / WSL</text><text x="160" y="190" fill="#F0F6FC" font-family="Consolas, Menlo, monospace" font-size="12" font-weight="400">&gt; organize your workflow</text><text x="160" y="215" fill="#00DDEB" font-family="Consolas, Menlo, monospace" font-size="16" font-weight="400">_</text><rect x="148" y="243" width="143" height="91" rx="6" fill="#0B1820" stroke="#234650"/><rect x="301" y="243" width="145" height="91" rx="6" fill="#0B1820" stroke="#234650"/><text x="160" y="264" fill="#00DDEB" font-family="Consolas, Menlo, monospace" font-size="10" font-weight="600">NOTES</text><text x="313" y="264" fill="#00DDEB" font-family="Consolas, Menlo, monospace" font-size="10" font-weight="600">SNIPPETS</text><path d="M160 279h106" stroke="#35525D" stroke-width="3"/><path d="M160 293h76.32" stroke="#35525D" stroke-width="3"/><path d="M160 307h95.4" stroke="#35525D" stroke-width="3"/><path d="M313 279h110" stroke="#35525D" stroke-width="3"/><path d="M313 293h79.2" stroke="#35525D" stroke-width="3"/><path d="M313 307h99.0" stroke="#35525D" stroke-width="3"/><text x="24" y="366" fill="#9DADB8" font-family="Consolas, Menlo, monospace" font-size="10" font-weight="400">Illustrated overview · Windows / Tauri / Rust</text><text x="22" y="399" fill="#C2CFD9" font-family="Arial, Helvetica, sans-serif" font-size="16" font-weight="400">Keep terminals, notes and command snippets</text><text x="22" y="421" fill="#C2CFD9" font-family="Arial, Helvetica, sans-serif" font-size="16" font-weight="400">organized in local project workspaces.</text><text x="22" y="449" fill="#00DDEB" font-family="Consolas, Menlo, monospace" font-size="11" font-weight="700">VIEW REPOSITORY</text><path d="M425 444H451M444 437L451 444L444 451" fill="none" stroke="#00DDEB" stroke-width="2"/></svg>
